<mxfile host="app.diagrams.net" modified="2024-06-26T04:59:31.156Z" agent="Mozilla/5.0 (Windows NT 10.0; Win64; x64) AppleWebKit/537.36 (KHTML, like Gecko) Chrome/126.0.0.0 Safari/537.36 Edg/126.0.0.0" etag="Gu05DSn5A2Pa2LeHsmXF" version="24.5.5" type="github">
  <diagram name="第 1 页" id="33GmmGcAfMOMD0EkAjBW">
    <mxGraphModel dx="868" dy="446" grid="1" gridSize="10" guides="1" tooltips="1" connect="1" arrows="1" fold="1" page="1" pageScale="1" pageWidth="1000" pageHeight="1000" math="0" shadow="0">
      <root>
        <mxCell id="0" />
        <mxCell id="1" parent="0" />
        <mxCell id="wCyc9jX3hgJGyrF8eftz-1" value="" style="rounded=0;whiteSpace=wrap;html=1;" vertex="1" parent="1">
          <mxGeometry x="40" y="40" width="80" height="80" as="geometry" />
        </mxCell>
        <mxCell id="wCyc9jX3hgJGyrF8eftz-2" value="1" style="rounded=0;whiteSpace=wrap;html=1;" vertex="1" parent="1">
          <mxGeometry x="120" y="40" width="20" height="20" as="geometry" />
        </mxCell>
        <mxCell id="wCyc9jX3hgJGyrF8eftz-3" value="" style="rounded=0;whiteSpace=wrap;html=1;" vertex="1" parent="1">
          <mxGeometry x="40" y="120" width="80" height="80" as="geometry" />
        </mxCell>
        <mxCell id="wCyc9jX3hgJGyrF8eftz-4" value="" style="rounded=0;whiteSpace=wrap;html=1;" vertex="1" parent="1">
          <mxGeometry x="120" y="120" width="80" height="80" as="geometry" />
        </mxCell>
        <mxCell id="wCyc9jX3hgJGyrF8eftz-5" value="2" style="rounded=0;whiteSpace=wrap;html=1;" vertex="1" parent="1">
          <mxGeometry x="140" y="40" width="20" height="20" as="geometry" />
        </mxCell>
        <mxCell id="wCyc9jX3hgJGyrF8eftz-6" value="3" style="rounded=0;whiteSpace=wrap;html=1;" vertex="1" parent="1">
          <mxGeometry x="160" y="40" width="20" height="20" as="geometry" />
        </mxCell>
        <mxCell id="wCyc9jX3hgJGyrF8eftz-7" value="4" style="rounded=0;whiteSpace=wrap;html=1;" vertex="1" parent="1">
          <mxGeometry x="180" y="40" width="20" height="20" as="geometry" />
        </mxCell>
        <mxCell id="wCyc9jX3hgJGyrF8eftz-8" value="5" style="rounded=0;whiteSpace=wrap;html=1;" vertex="1" parent="1">
          <mxGeometry x="120" y="60" width="20" height="20" as="geometry" />
        </mxCell>
        <mxCell id="wCyc9jX3hgJGyrF8eftz-9" value="6" style="rounded=0;whiteSpace=wrap;html=1;" vertex="1" parent="1">
          <mxGeometry x="140" y="60" width="20" height="20" as="geometry" />
        </mxCell>
        <mxCell id="wCyc9jX3hgJGyrF8eftz-10" value="7" style="rounded=0;whiteSpace=wrap;html=1;" vertex="1" parent="1">
          <mxGeometry x="160" y="60" width="20" height="20" as="geometry" />
        </mxCell>
        <mxCell id="wCyc9jX3hgJGyrF8eftz-11" value="8" style="rounded=0;whiteSpace=wrap;html=1;" vertex="1" parent="1">
          <mxGeometry x="180" y="60" width="20" height="20" as="geometry" />
        </mxCell>
        <mxCell id="wCyc9jX3hgJGyrF8eftz-12" value="9" style="rounded=0;whiteSpace=wrap;html=1;" vertex="1" parent="1">
          <mxGeometry x="120" y="80" width="20" height="20" as="geometry" />
        </mxCell>
        <mxCell id="wCyc9jX3hgJGyrF8eftz-13" value="10" style="rounded=0;whiteSpace=wrap;html=1;" vertex="1" parent="1">
          <mxGeometry x="140" y="80" width="20" height="20" as="geometry" />
        </mxCell>
        <mxCell id="wCyc9jX3hgJGyrF8eftz-14" value="11" style="rounded=0;whiteSpace=wrap;html=1;" vertex="1" parent="1">
          <mxGeometry x="160" y="80" width="20" height="20" as="geometry" />
        </mxCell>
        <mxCell id="wCyc9jX3hgJGyrF8eftz-15" value="13" style="rounded=0;whiteSpace=wrap;html=1;" vertex="1" parent="1">
          <mxGeometry x="120" y="100" width="20" height="20" as="geometry" />
        </mxCell>
        <mxCell id="wCyc9jX3hgJGyrF8eftz-16" value="14" style="rounded=0;whiteSpace=wrap;html=1;" vertex="1" parent="1">
          <mxGeometry x="140" y="100" width="20" height="20" as="geometry" />
        </mxCell>
        <mxCell id="wCyc9jX3hgJGyrF8eftz-17" value="15" style="rounded=0;whiteSpace=wrap;html=1;" vertex="1" parent="1">
          <mxGeometry x="160" y="100" width="20" height="20" as="geometry" />
        </mxCell>
        <mxCell id="wCyc9jX3hgJGyrF8eftz-68" style="edgeStyle=orthogonalEdgeStyle;rounded=0;orthogonalLoop=1;jettySize=auto;html=1;exitX=1;exitY=0;exitDx=0;exitDy=0;entryX=0;entryY=0;entryDx=0;entryDy=0;" edge="1" parent="1" source="wCyc9jX3hgJGyrF8eftz-18" target="wCyc9jX3hgJGyrF8eftz-60">
          <mxGeometry relative="1" as="geometry">
            <Array as="points">
              <mxPoint x="220" y="80" />
              <mxPoint x="220" y="80" />
            </Array>
          </mxGeometry>
        </mxCell>
        <mxCell id="wCyc9jX3hgJGyrF8eftz-18" value="12" style="rounded=0;whiteSpace=wrap;html=1;" vertex="1" parent="1">
          <mxGeometry x="180" y="80" width="20" height="20" as="geometry" />
        </mxCell>
        <mxCell id="wCyc9jX3hgJGyrF8eftz-19" value="16" style="rounded=0;whiteSpace=wrap;html=1;" vertex="1" parent="1">
          <mxGeometry x="180" y="100" width="20" height="20" as="geometry" />
        </mxCell>
        <mxCell id="wCyc9jX3hgJGyrF8eftz-36" value="1" style="rounded=0;whiteSpace=wrap;html=1;" vertex="1" parent="1">
          <mxGeometry x="420" y="40" width="20" height="20" as="geometry" />
        </mxCell>
        <mxCell id="wCyc9jX3hgJGyrF8eftz-37" value="5" style="rounded=0;whiteSpace=wrap;html=1;" vertex="1" parent="1">
          <mxGeometry x="440" y="40" width="20" height="20" as="geometry" />
        </mxCell>
        <mxCell id="wCyc9jX3hgJGyrF8eftz-38" value="9" style="rounded=0;whiteSpace=wrap;html=1;" vertex="1" parent="1">
          <mxGeometry x="460" y="40" width="20" height="20" as="geometry" />
        </mxCell>
        <mxCell id="wCyc9jX3hgJGyrF8eftz-39" value="13" style="rounded=0;whiteSpace=wrap;html=1;" vertex="1" parent="1">
          <mxGeometry x="480" y="40" width="20" height="20" as="geometry" />
        </mxCell>
        <mxCell id="wCyc9jX3hgJGyrF8eftz-40" value="2" style="rounded=0;whiteSpace=wrap;html=1;" vertex="1" parent="1">
          <mxGeometry x="420" y="60" width="20" height="20" as="geometry" />
        </mxCell>
        <mxCell id="wCyc9jX3hgJGyrF8eftz-41" value="6" style="rounded=0;whiteSpace=wrap;html=1;" vertex="1" parent="1">
          <mxGeometry x="440" y="60" width="20" height="20" as="geometry" />
        </mxCell>
        <mxCell id="wCyc9jX3hgJGyrF8eftz-42" value="10" style="rounded=0;whiteSpace=wrap;html=1;" vertex="1" parent="1">
          <mxGeometry x="460" y="60" width="20" height="20" as="geometry" />
        </mxCell>
        <mxCell id="wCyc9jX3hgJGyrF8eftz-89" style="edgeStyle=orthogonalEdgeStyle;rounded=0;orthogonalLoop=1;jettySize=auto;html=1;exitX=1;exitY=1;exitDx=0;exitDy=0;entryX=0;entryY=1;entryDx=0;entryDy=0;" edge="1" parent="1" source="wCyc9jX3hgJGyrF8eftz-43" target="wCyc9jX3hgJGyrF8eftz-77">
          <mxGeometry relative="1" as="geometry">
            <Array as="points">
              <mxPoint x="520" y="80" />
              <mxPoint x="520" y="160" />
            </Array>
          </mxGeometry>
        </mxCell>
        <mxCell id="wCyc9jX3hgJGyrF8eftz-43" value="14" style="rounded=0;whiteSpace=wrap;html=1;" vertex="1" parent="1">
          <mxGeometry x="480" y="60" width="20" height="20" as="geometry" />
        </mxCell>
        <mxCell id="wCyc9jX3hgJGyrF8eftz-44" value="3" style="rounded=0;whiteSpace=wrap;html=1;" vertex="1" parent="1">
          <mxGeometry x="420" y="80" width="20" height="20" as="geometry" />
        </mxCell>
        <mxCell id="wCyc9jX3hgJGyrF8eftz-45" value="7" style="rounded=0;whiteSpace=wrap;html=1;" vertex="1" parent="1">
          <mxGeometry x="440" y="80" width="20" height="20" as="geometry" />
        </mxCell>
        <mxCell id="wCyc9jX3hgJGyrF8eftz-46" value="11" style="rounded=0;whiteSpace=wrap;html=1;" vertex="1" parent="1">
          <mxGeometry x="460" y="80" width="20" height="20" as="geometry" />
        </mxCell>
        <mxCell id="wCyc9jX3hgJGyrF8eftz-47" value="4" style="rounded=0;whiteSpace=wrap;html=1;" vertex="1" parent="1">
          <mxGeometry x="420" y="100" width="20" height="20" as="geometry" />
        </mxCell>
        <mxCell id="wCyc9jX3hgJGyrF8eftz-48" value="8" style="rounded=0;whiteSpace=wrap;html=1;" vertex="1" parent="1">
          <mxGeometry x="440" y="100" width="20" height="20" as="geometry" />
        </mxCell>
        <mxCell id="wCyc9jX3hgJGyrF8eftz-49" value="12" style="rounded=0;whiteSpace=wrap;html=1;" vertex="1" parent="1">
          <mxGeometry x="460" y="100" width="20" height="20" as="geometry" />
        </mxCell>
        <mxCell id="wCyc9jX3hgJGyrF8eftz-50" value="15" style="rounded=0;whiteSpace=wrap;html=1;" vertex="1" parent="1">
          <mxGeometry x="480" y="80" width="20" height="20" as="geometry" />
        </mxCell>
        <mxCell id="wCyc9jX3hgJGyrF8eftz-51" value="16" style="rounded=0;whiteSpace=wrap;html=1;" vertex="1" parent="1">
          <mxGeometry x="480" y="100" width="20" height="20" as="geometry" />
        </mxCell>
        <mxCell id="wCyc9jX3hgJGyrF8eftz-52" value="1" style="rounded=0;whiteSpace=wrap;html=1;" vertex="1" parent="1">
          <mxGeometry x="240" y="40" width="20" height="20" as="geometry" />
        </mxCell>
        <mxCell id="wCyc9jX3hgJGyrF8eftz-53" value="2" style="rounded=0;whiteSpace=wrap;html=1;" vertex="1" parent="1">
          <mxGeometry x="260" y="40" width="20" height="20" as="geometry" />
        </mxCell>
        <mxCell id="wCyc9jX3hgJGyrF8eftz-54" value="3" style="rounded=0;whiteSpace=wrap;html=1;" vertex="1" parent="1">
          <mxGeometry x="280" y="40" width="20" height="20" as="geometry" />
        </mxCell>
        <mxCell id="wCyc9jX3hgJGyrF8eftz-55" value="4" style="rounded=0;whiteSpace=wrap;html=1;" vertex="1" parent="1">
          <mxGeometry x="300" y="40" width="20" height="20" as="geometry" />
        </mxCell>
        <mxCell id="wCyc9jX3hgJGyrF8eftz-56" value="5" style="rounded=0;whiteSpace=wrap;html=1;" vertex="1" parent="1">
          <mxGeometry x="240" y="60" width="20" height="20" as="geometry" />
        </mxCell>
        <mxCell id="wCyc9jX3hgJGyrF8eftz-57" value="6" style="rounded=0;whiteSpace=wrap;html=1;" vertex="1" parent="1">
          <mxGeometry x="260" y="60" width="20" height="20" as="geometry" />
        </mxCell>
        <mxCell id="wCyc9jX3hgJGyrF8eftz-58" value="7" style="rounded=0;whiteSpace=wrap;html=1;" vertex="1" parent="1">
          <mxGeometry x="280" y="60" width="20" height="20" as="geometry" />
        </mxCell>
        <mxCell id="wCyc9jX3hgJGyrF8eftz-69" style="edgeStyle=orthogonalEdgeStyle;rounded=0;orthogonalLoop=1;jettySize=auto;html=1;exitX=1;exitY=1;exitDx=0;exitDy=0;entryX=0;entryY=0;entryDx=0;entryDy=0;" edge="1" parent="1" source="wCyc9jX3hgJGyrF8eftz-59" target="wCyc9jX3hgJGyrF8eftz-44">
          <mxGeometry relative="1" as="geometry">
            <Array as="points">
              <mxPoint x="350" y="80" />
              <mxPoint x="350" y="80" />
            </Array>
          </mxGeometry>
        </mxCell>
        <mxCell id="wCyc9jX3hgJGyrF8eftz-59" value="8" style="rounded=0;whiteSpace=wrap;html=1;" vertex="1" parent="1">
          <mxGeometry x="300" y="60" width="20" height="20" as="geometry" />
        </mxCell>
        <mxCell id="wCyc9jX3hgJGyrF8eftz-60" value="9" style="rounded=0;whiteSpace=wrap;html=1;" vertex="1" parent="1">
          <mxGeometry x="240" y="80" width="20" height="20" as="geometry" />
        </mxCell>
        <mxCell id="wCyc9jX3hgJGyrF8eftz-61" value="10" style="rounded=0;whiteSpace=wrap;html=1;" vertex="1" parent="1">
          <mxGeometry x="260" y="80" width="20" height="20" as="geometry" />
        </mxCell>
        <mxCell id="wCyc9jX3hgJGyrF8eftz-62" value="11" style="rounded=0;whiteSpace=wrap;html=1;" vertex="1" parent="1">
          <mxGeometry x="280" y="80" width="20" height="20" as="geometry" />
        </mxCell>
        <mxCell id="wCyc9jX3hgJGyrF8eftz-63" value="13" style="rounded=0;whiteSpace=wrap;html=1;" vertex="1" parent="1">
          <mxGeometry x="240" y="100" width="20" height="20" as="geometry" />
        </mxCell>
        <mxCell id="wCyc9jX3hgJGyrF8eftz-64" value="14" style="rounded=0;whiteSpace=wrap;html=1;" vertex="1" parent="1">
          <mxGeometry x="260" y="100" width="20" height="20" as="geometry" />
        </mxCell>
        <mxCell id="wCyc9jX3hgJGyrF8eftz-65" value="15" style="rounded=0;whiteSpace=wrap;html=1;" vertex="1" parent="1">
          <mxGeometry x="280" y="100" width="20" height="20" as="geometry" />
        </mxCell>
        <mxCell id="wCyc9jX3hgJGyrF8eftz-66" value="12" style="rounded=0;whiteSpace=wrap;html=1;" vertex="1" parent="1">
          <mxGeometry x="300" y="80" width="20" height="20" as="geometry" />
        </mxCell>
        <mxCell id="wCyc9jX3hgJGyrF8eftz-67" value="16" style="rounded=0;whiteSpace=wrap;html=1;" vertex="1" parent="1">
          <mxGeometry x="300" y="100" width="20" height="20" as="geometry" />
        </mxCell>
        <mxCell id="wCyc9jX3hgJGyrF8eftz-70" value="" style="rounded=0;whiteSpace=wrap;html=1;" vertex="1" parent="1">
          <mxGeometry x="540" y="40" width="80" height="80" as="geometry" />
        </mxCell>
        <mxCell id="wCyc9jX3hgJGyrF8eftz-71" value="1" style="rounded=0;whiteSpace=wrap;html=1;" vertex="1" parent="1">
          <mxGeometry x="540" y="120" width="20" height="20" as="geometry" />
        </mxCell>
        <mxCell id="wCyc9jX3hgJGyrF8eftz-72" value="" style="rounded=0;whiteSpace=wrap;html=1;" vertex="1" parent="1">
          <mxGeometry x="620" y="40" width="80" height="80" as="geometry" />
        </mxCell>
        <mxCell id="wCyc9jX3hgJGyrF8eftz-73" value="" style="rounded=0;whiteSpace=wrap;html=1;" vertex="1" parent="1">
          <mxGeometry x="620" y="120" width="80" height="80" as="geometry" />
        </mxCell>
        <mxCell id="wCyc9jX3hgJGyrF8eftz-74" value="2" style="rounded=0;whiteSpace=wrap;html=1;" vertex="1" parent="1">
          <mxGeometry x="560" y="120" width="20" height="20" as="geometry" />
        </mxCell>
        <mxCell id="wCyc9jX3hgJGyrF8eftz-75" value="3" style="rounded=0;whiteSpace=wrap;html=1;" vertex="1" parent="1">
          <mxGeometry x="580" y="120" width="20" height="20" as="geometry" />
        </mxCell>
        <mxCell id="wCyc9jX3hgJGyrF8eftz-76" value="4" style="rounded=0;whiteSpace=wrap;html=1;" vertex="1" parent="1">
          <mxGeometry x="600" y="120" width="20" height="20" as="geometry" />
        </mxCell>
        <mxCell id="wCyc9jX3hgJGyrF8eftz-77" value="5" style="rounded=0;whiteSpace=wrap;html=1;" vertex="1" parent="1">
          <mxGeometry x="540" y="140" width="20" height="20" as="geometry" />
        </mxCell>
        <mxCell id="wCyc9jX3hgJGyrF8eftz-78" value="6" style="rounded=0;whiteSpace=wrap;html=1;" vertex="1" parent="1">
          <mxGeometry x="560" y="140" width="20" height="20" as="geometry" />
        </mxCell>
        <mxCell id="wCyc9jX3hgJGyrF8eftz-79" value="7" style="rounded=0;whiteSpace=wrap;html=1;" vertex="1" parent="1">
          <mxGeometry x="580" y="140" width="20" height="20" as="geometry" />
        </mxCell>
        <mxCell id="wCyc9jX3hgJGyrF8eftz-80" value="8" style="rounded=0;whiteSpace=wrap;html=1;" vertex="1" parent="1">
          <mxGeometry x="600" y="140" width="20" height="20" as="geometry" />
        </mxCell>
        <mxCell id="wCyc9jX3hgJGyrF8eftz-81" value="9" style="rounded=0;whiteSpace=wrap;html=1;" vertex="1" parent="1">
          <mxGeometry x="540" y="160" width="20" height="20" as="geometry" />
        </mxCell>
        <mxCell id="wCyc9jX3hgJGyrF8eftz-82" value="10" style="rounded=0;whiteSpace=wrap;html=1;" vertex="1" parent="1">
          <mxGeometry x="560" y="160" width="20" height="20" as="geometry" />
        </mxCell>
        <mxCell id="wCyc9jX3hgJGyrF8eftz-83" value="11" style="rounded=0;whiteSpace=wrap;html=1;" vertex="1" parent="1">
          <mxGeometry x="580" y="160" width="20" height="20" as="geometry" />
        </mxCell>
        <mxCell id="wCyc9jX3hgJGyrF8eftz-84" value="13" style="rounded=0;whiteSpace=wrap;html=1;" vertex="1" parent="1">
          <mxGeometry x="540" y="180" width="20" height="20" as="geometry" />
        </mxCell>
        <mxCell id="wCyc9jX3hgJGyrF8eftz-85" value="14" style="rounded=0;whiteSpace=wrap;html=1;" vertex="1" parent="1">
          <mxGeometry x="560" y="180" width="20" height="20" as="geometry" />
        </mxCell>
        <mxCell id="wCyc9jX3hgJGyrF8eftz-86" value="15" style="rounded=0;whiteSpace=wrap;html=1;" vertex="1" parent="1">
          <mxGeometry x="580" y="180" width="20" height="20" as="geometry" />
        </mxCell>
        <mxCell id="wCyc9jX3hgJGyrF8eftz-87" value="12" style="rounded=0;whiteSpace=wrap;html=1;" vertex="1" parent="1">
          <mxGeometry x="600" y="160" width="20" height="20" as="geometry" />
        </mxCell>
        <mxCell id="wCyc9jX3hgJGyrF8eftz-88" value="16" style="rounded=0;whiteSpace=wrap;html=1;" vertex="1" parent="1">
          <mxGeometry x="600" y="180" width="20" height="20" as="geometry" />
        </mxCell>
        <mxCell id="wCyc9jX3hgJGyrF8eftz-90" value="inputMat" style="text;html=1;align=center;verticalAlign=middle;whiteSpace=wrap;rounded=0;" vertex="1" parent="1">
          <mxGeometry x="90" y="200" width="60" height="30" as="geometry" />
        </mxCell>
        <mxCell id="wCyc9jX3hgJGyrF8eftz-91" value="outputMat" style="text;html=1;align=center;verticalAlign=middle;whiteSpace=wrap;rounded=0;" vertex="1" parent="1">
          <mxGeometry x="590" y="200" width="60" height="30" as="geometry" />
        </mxCell>
        <mxCell id="wCyc9jX3hgJGyrF8eftz-92" value="Shared&lt;div&gt;Memory&lt;/div&gt;" style="text;html=1;align=center;verticalAlign=middle;whiteSpace=wrap;rounded=0;" vertex="1" parent="1">
          <mxGeometry x="250" y="10" width="60" height="30" as="geometry" />
        </mxCell>
        <mxCell id="wCyc9jX3hgJGyrF8eftz-93" value="__syncthreads()" style="text;html=1;align=center;verticalAlign=middle;whiteSpace=wrap;rounded=0;" vertex="1" parent="1">
          <mxGeometry x="310" y="55" width="110" height="30" as="geometry" />
        </mxCell>
        <mxCell id="wCyc9jX3hgJGyrF8eftz-94" value="Global&lt;div&gt;Memory&lt;/div&gt;" style="text;html=1;align=center;verticalAlign=middle;whiteSpace=wrap;rounded=0;" vertex="1" parent="1">
          <mxGeometry x="90" y="10" width="60" height="30" as="geometry" />
        </mxCell>
        <mxCell id="wCyc9jX3hgJGyrF8eftz-96" value="Global&lt;div&gt;Memory&lt;/div&gt;" style="text;html=1;align=center;verticalAlign=middle;whiteSpace=wrap;rounded=0;" vertex="1" parent="1">
          <mxGeometry x="590" y="10" width="60" height="30" as="geometry" />
        </mxCell>
        <mxCell id="wCyc9jX3hgJGyrF8eftz-97" value="buffer" style="text;html=1;align=center;verticalAlign=middle;whiteSpace=wrap;rounded=0;" vertex="1" parent="1">
          <mxGeometry x="250" y="120" width="60" height="30" as="geometry" />
        </mxCell>
        <mxCell id="wCyc9jX3hgJGyrF8eftz-98" value="buffer" style="text;html=1;align=center;verticalAlign=middle;whiteSpace=wrap;rounded=0;" vertex="1" parent="1">
          <mxGeometry x="430" y="120" width="60" height="30" as="geometry" />
        </mxCell>
        <mxCell id="wCyc9jX3hgJGyrF8eftz-99" value="re-index" style="text;html=1;align=center;verticalAlign=middle;whiteSpace=wrap;rounded=0;" vertex="1" parent="1">
          <mxGeometry x="310" y="75" width="110" height="30" as="geometry" />
        </mxCell>
        <mxCell id="wCyc9jX3hgJGyrF8eftz-100" value="0" style="rounded=0;whiteSpace=wrap;html=1;fillColor=#fff2cc;strokeColor=#d6b656;" vertex="1" parent="1">
          <mxGeometry x="415" y="260" width="20" height="20" as="geometry" />
        </mxCell>
        <mxCell id="wCyc9jX3hgJGyrF8eftz-101" value="31" style="rounded=0;whiteSpace=wrap;html=1;" vertex="1" parent="1">
          <mxGeometry x="635" y="260" width="20" height="20" as="geometry" />
        </mxCell>
        <mxCell id="wCyc9jX3hgJGyrF8eftz-103" value="32" style="rounded=0;whiteSpace=wrap;html=1;fillColor=#fff2cc;strokeColor=#d6b656;" vertex="1" parent="1">
          <mxGeometry x="445" y="280" width="20" height="20" as="geometry" />
        </mxCell>
        <mxCell id="wCyc9jX3hgJGyrF8eftz-104" value="..." style="rounded=0;whiteSpace=wrap;html=1;" vertex="1" parent="1">
          <mxGeometry x="535" y="260" width="60" height="20" as="geometry" />
        </mxCell>
        <mxCell id="wCyc9jX3hgJGyrF8eftz-105" value="62" style="rounded=0;whiteSpace=wrap;html=1;" vertex="1" parent="1">
          <mxGeometry x="635" y="280" width="20" height="20" as="geometry" />
        </mxCell>
        <mxCell id="wCyc9jX3hgJGyrF8eftz-106" value="63" style="rounded=0;whiteSpace=wrap;html=1;" vertex="1" parent="1">
          <mxGeometry x="415" y="280" width="20" height="20" as="geometry" />
        </mxCell>
        <mxCell id="wCyc9jX3hgJGyrF8eftz-107" value="64" style="rounded=0;whiteSpace=wrap;html=1;fillColor=#fff2cc;strokeColor=#d6b656;" vertex="1" parent="1">
          <mxGeometry x="475" y="300" width="20" height="20" as="geometry" />
        </mxCell>
        <mxCell id="wCyc9jX3hgJGyrF8eftz-108" value="1" style="rounded=0;whiteSpace=wrap;html=1;" vertex="1" parent="1">
          <mxGeometry x="445" y="260" width="20" height="20" as="geometry" />
        </mxCell>
        <mxCell id="wCyc9jX3hgJGyrF8eftz-109" value="2" style="rounded=0;whiteSpace=wrap;html=1;" vertex="1" parent="1">
          <mxGeometry x="475" y="260" width="20" height="20" as="geometry" />
        </mxCell>
        <mxCell id="wCyc9jX3hgJGyrF8eftz-110" value="3" style="rounded=0;whiteSpace=wrap;html=1;" vertex="1" parent="1">
          <mxGeometry x="505" y="260" width="20" height="20" as="geometry" />
        </mxCell>
        <mxCell id="wCyc9jX3hgJGyrF8eftz-111" value="30" style="rounded=0;whiteSpace=wrap;html=1;" vertex="1" parent="1">
          <mxGeometry x="605" y="260" width="20" height="20" as="geometry" />
        </mxCell>
        <mxCell id="wCyc9jX3hgJGyrF8eftz-112" value="33" style="rounded=0;whiteSpace=wrap;html=1;" vertex="1" parent="1">
          <mxGeometry x="475" y="280" width="20" height="20" as="geometry" />
        </mxCell>
        <mxCell id="wCyc9jX3hgJGyrF8eftz-113" value="34" style="rounded=0;whiteSpace=wrap;html=1;" vertex="1" parent="1">
          <mxGeometry x="505" y="280" width="20" height="20" as="geometry" />
        </mxCell>
        <mxCell id="wCyc9jX3hgJGyrF8eftz-114" value="..." style="rounded=0;whiteSpace=wrap;html=1;" vertex="1" parent="1">
          <mxGeometry x="535" y="280" width="60" height="20" as="geometry" />
        </mxCell>
        <mxCell id="wCyc9jX3hgJGyrF8eftz-115" value="61" style="rounded=0;whiteSpace=wrap;html=1;fontStyle=0" vertex="1" parent="1">
          <mxGeometry x="605" y="280" width="20" height="20" as="geometry" />
        </mxCell>
        <mxCell id="wCyc9jX3hgJGyrF8eftz-116" value="96" style="rounded=0;whiteSpace=wrap;html=1;fillColor=#fff2cc;strokeColor=#d6b656;" vertex="1" parent="1">
          <mxGeometry x="505" y="320" width="20" height="20" as="geometry" />
        </mxCell>
        <mxCell id="wCyc9jX3hgJGyrF8eftz-117" value="94" style="rounded=0;whiteSpace=wrap;html=1;" vertex="1" parent="1">
          <mxGeometry x="415" y="300" width="20" height="20" as="geometry" />
        </mxCell>
        <mxCell id="wCyc9jX3hgJGyrF8eftz-118" value="95" style="rounded=0;whiteSpace=wrap;html=1;" vertex="1" parent="1">
          <mxGeometry x="445" y="300" width="20" height="20" as="geometry" />
        </mxCell>
        <mxCell id="wCyc9jX3hgJGyrF8eftz-119" value="125" style="rounded=0;whiteSpace=wrap;html=1;fontSize=11;" vertex="1" parent="1">
          <mxGeometry x="415" y="320" width="20" height="20" as="geometry" />
        </mxCell>
        <mxCell id="wCyc9jX3hgJGyrF8eftz-120" value="126" style="rounded=0;whiteSpace=wrap;html=1;fontSize=11;" vertex="1" parent="1">
          <mxGeometry x="445" y="320" width="20" height="20" as="geometry" />
        </mxCell>
        <mxCell id="wCyc9jX3hgJGyrF8eftz-121" value="127" style="rounded=0;whiteSpace=wrap;html=1;fontSize=11;" vertex="1" parent="1">
          <mxGeometry x="475" y="320" width="20" height="20" as="geometry" />
        </mxCell>
        <mxCell id="wCyc9jX3hgJGyrF8eftz-122" value="65" style="rounded=0;whiteSpace=wrap;html=1;" vertex="1" parent="1">
          <mxGeometry x="505" y="300" width="20" height="20" as="geometry" />
        </mxCell>
        <mxCell id="wCyc9jX3hgJGyrF8eftz-123" value="" style="rounded=0;whiteSpace=wrap;html=1;" vertex="1" parent="1">
          <mxGeometry x="535" y="300" width="60" height="20" as="geometry" />
        </mxCell>
        <mxCell id="wCyc9jX3hgJGyrF8eftz-124" value="" style="rounded=0;whiteSpace=wrap;html=1;" vertex="1" parent="1">
          <mxGeometry x="535" y="320" width="60" height="20" as="geometry" />
        </mxCell>
        <mxCell id="wCyc9jX3hgJGyrF8eftz-125" value="92" style="rounded=0;whiteSpace=wrap;html=1;" vertex="1" parent="1">
          <mxGeometry x="605" y="300" width="20" height="20" as="geometry" />
        </mxCell>
        <mxCell id="wCyc9jX3hgJGyrF8eftz-126" value="93" style="rounded=0;whiteSpace=wrap;html=1;" vertex="1" parent="1">
          <mxGeometry x="635" y="300" width="20" height="20" as="geometry" />
        </mxCell>
        <mxCell id="wCyc9jX3hgJGyrF8eftz-127" value="123" style="rounded=0;whiteSpace=wrap;html=1;fontSize=11;" vertex="1" parent="1">
          <mxGeometry x="605" y="320" width="20" height="20" as="geometry" />
        </mxCell>
        <mxCell id="wCyc9jX3hgJGyrF8eftz-128" value="124" style="rounded=0;whiteSpace=wrap;html=1;fontSize=11;" vertex="1" parent="1">
          <mxGeometry x="635" y="320" width="20" height="20" as="geometry" />
        </mxCell>
        <mxCell id="wCyc9jX3hgJGyrF8eftz-129" value="resolving bank conflict" style="text;html=1;align=center;verticalAlign=middle;whiteSpace=wrap;rounded=0;" vertex="1" parent="1">
          <mxGeometry x="300" y="360" width="130" height="30" as="geometry" />
        </mxCell>
        <mxCell id="wCyc9jX3hgJGyrF8eftz-159" value="0" style="rounded=0;whiteSpace=wrap;html=1;fillColor=#fff2cc;strokeColor=#d6b656;" vertex="1" parent="1">
          <mxGeometry x="75" y="260" width="20" height="20" as="geometry" />
        </mxCell>
        <mxCell id="wCyc9jX3hgJGyrF8eftz-160" value="31" style="rounded=0;whiteSpace=wrap;html=1;" vertex="1" parent="1">
          <mxGeometry x="295" y="260" width="20" height="20" as="geometry" />
        </mxCell>
        <mxCell id="wCyc9jX3hgJGyrF8eftz-161" value="33" style="rounded=0;whiteSpace=wrap;html=1;" vertex="1" parent="1">
          <mxGeometry x="105" y="280" width="20" height="20" as="geometry" />
        </mxCell>
        <mxCell id="wCyc9jX3hgJGyrF8eftz-162" value="..." style="rounded=0;whiteSpace=wrap;html=1;" vertex="1" parent="1">
          <mxGeometry x="195" y="260" width="60" height="20" as="geometry" />
        </mxCell>
        <mxCell id="wCyc9jX3hgJGyrF8eftz-163" value="63" style="rounded=0;whiteSpace=wrap;html=1;" vertex="1" parent="1">
          <mxGeometry x="295" y="280" width="20" height="20" as="geometry" />
        </mxCell>
        <mxCell id="wCyc9jX3hgJGyrF8eftz-164" value="32" style="rounded=0;whiteSpace=wrap;html=1;fillColor=#fff2cc;strokeColor=#d6b656;" vertex="1" parent="1">
          <mxGeometry x="75" y="280" width="20" height="20" as="geometry" />
        </mxCell>
        <mxCell id="wCyc9jX3hgJGyrF8eftz-165" value="66" style="rounded=0;whiteSpace=wrap;html=1;" vertex="1" parent="1">
          <mxGeometry x="135" y="300" width="20" height="20" as="geometry" />
        </mxCell>
        <mxCell id="wCyc9jX3hgJGyrF8eftz-166" value="1" style="rounded=0;whiteSpace=wrap;html=1;" vertex="1" parent="1">
          <mxGeometry x="105" y="260" width="20" height="20" as="geometry" />
        </mxCell>
        <mxCell id="wCyc9jX3hgJGyrF8eftz-167" value="2" style="rounded=0;whiteSpace=wrap;html=1;" vertex="1" parent="1">
          <mxGeometry x="135" y="260" width="20" height="20" as="geometry" />
        </mxCell>
        <mxCell id="wCyc9jX3hgJGyrF8eftz-168" value="3" style="rounded=0;whiteSpace=wrap;html=1;" vertex="1" parent="1">
          <mxGeometry x="165" y="260" width="20" height="20" as="geometry" />
        </mxCell>
        <mxCell id="wCyc9jX3hgJGyrF8eftz-169" value="30" style="rounded=0;whiteSpace=wrap;html=1;" vertex="1" parent="1">
          <mxGeometry x="265" y="260" width="20" height="20" as="geometry" />
        </mxCell>
        <mxCell id="wCyc9jX3hgJGyrF8eftz-170" value="34" style="rounded=0;whiteSpace=wrap;html=1;" vertex="1" parent="1">
          <mxGeometry x="135" y="280" width="20" height="20" as="geometry" />
        </mxCell>
        <mxCell id="wCyc9jX3hgJGyrF8eftz-171" value="35" style="rounded=0;whiteSpace=wrap;html=1;" vertex="1" parent="1">
          <mxGeometry x="165" y="280" width="20" height="20" as="geometry" />
        </mxCell>
        <mxCell id="wCyc9jX3hgJGyrF8eftz-172" value="..." style="rounded=0;whiteSpace=wrap;html=1;" vertex="1" parent="1">
          <mxGeometry x="195" y="280" width="60" height="20" as="geometry" />
        </mxCell>
        <mxCell id="wCyc9jX3hgJGyrF8eftz-173" value="62" style="rounded=0;whiteSpace=wrap;html=1;fontStyle=0" vertex="1" parent="1">
          <mxGeometry x="265" y="280" width="20" height="20" as="geometry" />
        </mxCell>
        <mxCell id="wCyc9jX3hgJGyrF8eftz-174" value="99" style="rounded=0;whiteSpace=wrap;html=1;" vertex="1" parent="1">
          <mxGeometry x="165" y="320" width="20" height="20" as="geometry" />
        </mxCell>
        <mxCell id="wCyc9jX3hgJGyrF8eftz-175" value="64" style="rounded=0;whiteSpace=wrap;html=1;fillColor=#fff2cc;strokeColor=#d6b656;" vertex="1" parent="1">
          <mxGeometry x="75" y="300" width="20" height="20" as="geometry" />
        </mxCell>
        <mxCell id="wCyc9jX3hgJGyrF8eftz-176" value="65" style="rounded=0;whiteSpace=wrap;html=1;" vertex="1" parent="1">
          <mxGeometry x="105" y="300" width="20" height="20" as="geometry" />
        </mxCell>
        <mxCell id="wCyc9jX3hgJGyrF8eftz-177" value="96" style="rounded=0;whiteSpace=wrap;html=1;fontSize=12;fillColor=#fff2cc;strokeColor=#d6b656;" vertex="1" parent="1">
          <mxGeometry x="75" y="320" width="20" height="20" as="geometry" />
        </mxCell>
        <mxCell id="wCyc9jX3hgJGyrF8eftz-178" value="97" style="rounded=0;whiteSpace=wrap;html=1;fontSize=12;" vertex="1" parent="1">
          <mxGeometry x="105" y="320" width="20" height="20" as="geometry" />
        </mxCell>
        <mxCell id="wCyc9jX3hgJGyrF8eftz-179" value="98" style="rounded=0;whiteSpace=wrap;html=1;fontSize=12;" vertex="1" parent="1">
          <mxGeometry x="135" y="320" width="20" height="20" as="geometry" />
        </mxCell>
        <mxCell id="wCyc9jX3hgJGyrF8eftz-180" value="67" style="rounded=0;whiteSpace=wrap;html=1;" vertex="1" parent="1">
          <mxGeometry x="165" y="300" width="20" height="20" as="geometry" />
        </mxCell>
        <mxCell id="wCyc9jX3hgJGyrF8eftz-181" value="" style="rounded=0;whiteSpace=wrap;html=1;" vertex="1" parent="1">
          <mxGeometry x="195" y="300" width="60" height="20" as="geometry" />
        </mxCell>
        <mxCell id="wCyc9jX3hgJGyrF8eftz-182" value="" style="rounded=0;whiteSpace=wrap;html=1;" vertex="1" parent="1">
          <mxGeometry x="195" y="320" width="60" height="20" as="geometry" />
        </mxCell>
        <mxCell id="wCyc9jX3hgJGyrF8eftz-183" value="94" style="rounded=0;whiteSpace=wrap;html=1;" vertex="1" parent="1">
          <mxGeometry x="265" y="300" width="20" height="20" as="geometry" />
        </mxCell>
        <mxCell id="wCyc9jX3hgJGyrF8eftz-184" value="95" style="rounded=0;whiteSpace=wrap;html=1;" vertex="1" parent="1">
          <mxGeometry x="295" y="300" width="20" height="20" as="geometry" />
        </mxCell>
        <mxCell id="wCyc9jX3hgJGyrF8eftz-185" value="126" style="rounded=0;whiteSpace=wrap;html=1;fontSize=11;" vertex="1" parent="1">
          <mxGeometry x="265" y="320" width="20" height="20" as="geometry" />
        </mxCell>
        <mxCell id="wCyc9jX3hgJGyrF8eftz-186" value="127" style="rounded=0;whiteSpace=wrap;html=1;fontSize=11;" vertex="1" parent="1">
          <mxGeometry x="295" y="320" width="20" height="20" as="geometry" />
        </mxCell>
        <mxCell id="wCyc9jX3hgJGyrF8eftz-187" value="" style="shape=flexArrow;endArrow=classic;html=1;rounded=0;" edge="1" parent="1">
          <mxGeometry width="50" height="50" relative="1" as="geometry">
            <mxPoint x="335" y="300" as="sourcePoint" />
            <mxPoint x="395" y="300" as="targetPoint" />
          </mxGeometry>
        </mxCell>
      </root>
    </mxGraphModel>
  </diagram>
</mxfile>
